<?xml version="1.0" encoding="utf-8"?>
<!-- Generator: Adobe Illustrator 24.1.1, SVG Export Plug-In . SVG Version: 6.00 Build 0)  -->
<svg version="1.1" id="Capa_1" xmlns="http://www.w3.org/2000/svg" xmlns:xlink="http://www.w3.org/1999/xlink" x="0px" y="0px"
	 viewBox="0 0 26 26" style="enable-background:new 0 0 26 26;" xml:space="preserve">
<style type="text/css">
	.st0{fill:#00BB2D;}
	.st1{fill:#FFFFFF;}
</style>
<g>
	<path class="st0" d="M13.2,2.1C7.3,2.1,2.6,6.8,2.6,12.7c0,3.4,2.1,6.3,2.1,6.3l-1.3,3.8l4-1.3c0,0,2.6,1.7,5.8,1.7
		c5.8,0,10.6-4.7,10.6-10.6C23.8,6.8,19,2.1,13.2,2.1z"/>
	<path class="st1" d="M13.2,0.1c-7,0-12.6,5.6-12.6,12.6c0,3.4,1.8,6.5,1.8,6.5l-2.2,6.7l6.9-2.2c0,0,2.6,1.6,6.1,1.6
		c6.9,0,12.6-5.6,12.6-12.6C25.8,5.7,20.1,0.1,13.2,0.1z M13.2,23.2c-3.2,0-5.8-1.7-5.8-1.7l-4,1.3L4.7,19c0,0-2.1-2.9-2.1-6.3
		c0-5.8,4.7-10.6,10.6-10.6s10.6,4.7,10.6,10.6C23.8,18.5,19,23.2,13.2,23.2z"/>
	<path class="st1" d="M8.4,7.2c0,0,0.3-0.2,0.5-0.2s1,0,1,0s0.3,0,0.4,0.3c0.1,0.3,1,2.2,1,2.4c0.1,0.2,0.2,0.5,0,0.9
		c-0.3,0.3-0.8,1-0.8,1s-0.2,0.2,0,0.5s0.8,1.3,1.7,2.1s1.9,1.3,2.4,1.5s0.6-0.1,0.8-0.3c0.2-0.3,0.8-1,0.8-1s0.2-0.3,0.6-0.1
		s2.5,1.2,2.5,1.2s0.3,0,0.3,0.3s0.2,1.1-0.6,1.9c-0.7,0.8-2.3,1.2-3.1,1c-0.8-0.2-3.2-0.9-4.9-2.4c-1.6-1.5-2.9-3.1-3.5-4.3
		c-0.4-1.3-0.4-2-0.3-2.3C7.2,9.4,7.4,7.8,8.4,7.2z"/>
</g>
</svg>
